<?xml version="1.0" encoding="UTF-8"?>
<svg xmlns="http://www.w3.org/2000/svg" viewBox="0 0 900 520" font-family="Segoe UI, Arial, sans-serif">
  <rect width="900" height="520" fill="#0d1117" rx="12"/>
  <text x="450" y="30" text-anchor="middle" fill="#f0f6fc" font-size="16" font-weight="bold">Trident System Architecture</text>

  <!-- LLM Layer -->
  <rect x="300" y="45" width="300" height="55" rx="10" fill="#21262d" stroke="#f0f6fc" stroke-width="1.5"/>
  <text x="450" y="68" text-anchor="middle" fill="#f0f6fc" font-size="13" font-weight="bold">Claude Opus 4.6</text>
  <text x="450" y="88" text-anchor="middle" fill="#8b949e" font-size="10">via Copilot API | stock model, full safety guardrails</text>

  <path d="M450,100 L450,120" stroke="#8b949e" stroke-width="1.5"/>
  <polygon points="445,118 450,126 455,118" fill="#8b949e"/>

  <!-- SDK Layer -->
  <rect x="270" y="126" width="360" height="40" rx="8" fill="#161b22" stroke="#388bfd" stroke-width="1"/>
  <text x="450" y="151" text-anchor="middle" fill="#388bfd" font-size="12">Copilot SDK  |  token tracking  |  cache management</text>

  <path d="M450,166 L450,185" stroke="#8b949e" stroke-width="1.5"/>
  <polygon points="445,183 450,191 455,183" fill="#8b949e"/>

  <!-- Operator Layer - big box -->
  <rect x="60" y="191" width="780" height="145" rx="10" fill="#0d1117" stroke="#f85149" stroke-width="1.5"/>
  <text x="80" y="212" fill="#f85149" font-size="13" font-weight="bold">Operator</text>

  <!-- Operator internals -->
  <rect x="80" y="222" width="145" height="50" rx="6" fill="#f8514912" stroke="#f85149" stroke-width="0.8"/>
  <text x="152" y="242" text-anchor="middle" fill="#f0f6fc" font-size="11" font-weight="bold">Agent Loop</text>
  <text x="152" y="258" text-anchor="middle" fill="#8b949e" font-size="9">send / process / record</text>

  <rect x="240" y="222" width="145" height="50" rx="6" fill="#f8514912" stroke="#f85149" stroke-width="0.8"/>
  <text x="312" y="242" text-anchor="middle" fill="#f0f6fc" font-size="11" font-weight="bold">System Prompt</text>
  <text x="312" y="258" text-anchor="middle" fill="#8b949e" font-size="9">stable prefix + dynamic suffix</text>

  <rect x="400" y="222" width="145" height="50" rx="6" fill="#f8514912" stroke="#f85149" stroke-width="0.8"/>
  <text x="472" y="242" text-anchor="middle" fill="#f0f6fc" font-size="11" font-weight="bold">Anti-Stagnation</text>
  <text x="472" y="258" text-anchor="middle" fill="#8b949e" font-size="9">5-layer defence stack</text>

  <rect x="560" y="222" width="130" height="50" rx="6" fill="#f8514912" stroke="#f85149" stroke-width="0.8"/>
  <text x="625" y="242" text-anchor="middle" fill="#f0f6fc" font-size="11" font-weight="bold">Findings DB</text>
  <text x="625" y="258" text-anchor="middle" fill="#8b949e" font-size="9">evidence + exploit ledger</text>

  <rect x="705" y="222" width="120" height="50" rx="6" fill="#f8514912" stroke="#f85149" stroke-width="0.8"/>
  <text x="765" y="242" text-anchor="middle" fill="#f0f6fc" font-size="11" font-weight="bold">Audit Trail</text>
  <text x="765" y="258" text-anchor="middle" fill="#8b949e" font-size="9">CoT + evidence log</text>

  <!-- Meta tools row -->
  <rect x="80" y="285" width="750" height="35" rx="6" fill="#161b22" stroke="#6e7681" stroke-width="0.8"/>
  <text x="100" y="307" fill="#8b949e" font-size="10">Meta Tools:</text>
  <text x="170" y="307" fill="#c9d1d9" font-size="10">add_finding  |  checklist  |  exploit_ledger  |  credentials  |  query_memory  |  coverage</text>

  <!-- MCP Pool -->
  <path d="M450,336 L450,355" stroke="#8b949e" stroke-width="1.5"/>
  <polygon points="445,353 450,361 455,353" fill="#8b949e"/>

  <rect x="120" y="361" width="660" height="40" rx="8" fill="#161b22" stroke="#a78bfa" stroke-width="1"/>
  <text x="450" y="386" text-anchor="middle" fill="#a78bfa" font-size="12">MCP Pool  |  async stdio connections  |  JSON-RPC  |  tool discovery</text>

  <!-- Engine boxes -->
  <path d="M200,401 L200,420" stroke="#8b949e" stroke-width="1"/>
  <path d="M330,401 L330,420" stroke="#8b949e" stroke-width="1"/>
  <path d="M450,401 L450,420" stroke="#8b949e" stroke-width="1"/>
  <path d="M570,401 L570,420" stroke="#8b949e" stroke-width="1"/>
  <path d="M700,401 L700,420" stroke="#8b949e" stroke-width="1"/>

  <rect x="140" y="420" width="110" height="40" rx="6" fill="#2ea04318" stroke="#2ea043" stroke-width="1"/>
  <text x="195" y="436" text-anchor="middle" fill="#2ea043" font-size="10" font-weight="bold">network</text>
  <text x="195" y="450" text-anchor="middle" fill="#8b949e" font-size="8">scan, fetch, curl</text>

  <rect x="270" y="420" width="110" height="40" rx="6" fill="#388bfd18" stroke="#388bfd" stroke-width="1"/>
  <text x="325" y="436" text-anchor="middle" fill="#388bfd" font-size="10" font-weight="bold">kali</text>
  <text x="325" y="450" text-anchor="middle" fill="#8b949e" font-size="8">nmap, sqlmap, hydra</text>

  <rect x="395" y="420" width="110" height="40" rx="6" fill="#d2960018" stroke="#d29600" stroke-width="1"/>
  <text x="450" y="436" text-anchor="middle" fill="#d29600" font-size="10" font-weight="bold">exploitgym</text>
  <text x="450" y="450" text-anchor="middle" fill="#8b949e" font-size="8">crash, binary, interact</text>

  <rect x="520" y="420" width="110" height="40" rx="6" fill="#f8514918" stroke="#f85149" stroke-width="1"/>
  <text x="575" y="436" text-anchor="middle" fill="#f85149" font-size="10" font-weight="bold">kernel</text>
  <text x="575" y="450" text-anchor="middle" fill="#8b949e" font-size="8">vm_cmd, upload, analyze</text>

  <rect x="645" y="420" width="110" height="40" rx="6" fill="#a78bfa18" stroke="#a78bfa" stroke-width="1"/>
  <text x="700" y="436" text-anchor="middle" fill="#a78bfa" font-size="10" font-weight="bold">scout</text>
  <text x="700" y="450" text-anchor="middle" fill="#8b949e" font-size="8">recon, enumerate</text>

  <!-- More engines hint -->
  <text x="450" y="490" text-anchor="middle" fill="#6e7681" font-size="10">+ ai-attack, heavy-scan, trailmark, active-directory (9 engines total)</text>

  <!-- Safety badge -->
  <rect x="30" y="475" width="170" height="30" rx="15" fill="#21262d" stroke="#2ea043" stroke-width="1"/>
  <text x="115" y="495" text-anchor="middle" fill="#2ea043" font-size="10">Safety + Scope Enforcement</text>

  <rect x="700" y="475" width="170" height="30" rx="15" fill="#21262d" stroke="#d29600" stroke-width="1"/>
  <text x="785" y="495" text-anchor="middle" fill="#d29600" font-size="10">Engagement Memory</text>
</svg>