<?xml version="1.0" encoding="UTF-8"?>
<svg xmlns="http://www.w3.org/2000/svg" viewBox="0 0 800 420" font-family="Segoe UI, Arial, sans-serif">
  <rect width="800" height="420" fill="#0d1117" rx="12"/>

  <!-- LLM -->
  <rect x="250" y="20" width="300" height="55" rx="10" fill="#21262d" stroke="#58a6ff" stroke-width="2"/>
  <text x="400" y="45" text-anchor="middle" fill="#58a6ff" font-size="18" font-weight="bold">Claude Opus 4.6</text>
  <text x="400" y="64" text-anchor="middle" fill="#8b949e" font-size="12">stock model, all safety guardrails</text>

  <!-- Arrow -->
  <line x1="400" y1="75" x2="400" y2="95" stroke="#484f58" stroke-width="2"/>

  <!-- SDK -->
  <rect x="200" y="95" width="400" height="42" rx="8" fill="#161b22" stroke="#388bfd" stroke-width="1.5"/>
  <text x="400" y="122" text-anchor="middle" fill="#388bfd" font-size="15">Copilot SDK + Token/Cache Management</text>

  <line x1="400" y1="137" x2="400" y2="157" stroke="#484f58" stroke-width="2"/>

  <!-- Operator -->
  <rect x="60" y="157" width="680" height="100" rx="10" fill="#161b22" stroke="#f85149" stroke-width="2"/>
  <text x="400" y="182" text-anchor="middle" fill="#f85149" font-size="17" font-weight="bold">Operator</text>
  <text x="160" y="210" text-anchor="middle" fill="#c9d1d9" font-size="13">Agent Loop</text>
  <text x="310" y="210" text-anchor="middle" fill="#c9d1d9" font-size="13">System Prompt</text>
  <text x="490" y="210" text-anchor="middle" fill="#c9d1d9" font-size="13">Anti-Stagnation</text>
  <text x="650" y="210" text-anchor="middle" fill="#c9d1d9" font-size="13">Findings DB</text>
  <text x="400" y="244" text-anchor="middle" fill="#6e7681" font-size="12">Meta: add_finding | checklist | exploit_ledger | credentials | coverage</text>

  <line x1="400" y1="257" x2="400" y2="277" stroke="#484f58" stroke-width="2"/>

  <!-- MCP Pool -->
  <rect x="140" y="277" width="520" height="42" rx="8" fill="#161b22" stroke="#a78bfa" stroke-width="1.5"/>
  <text x="400" y="304" text-anchor="middle" fill="#a78bfa" font-size="15">MCP Pool (async stdio, JSON-RPC, tool discovery)</text>

  <!-- Engine boxes -->
  <line x1="200" y1="319" x2="200" y2="340" stroke="#484f58" stroke-width="1.5"/>
  <line x1="330" y1="319" x2="330" y2="340" stroke="#484f58" stroke-width="1.5"/>
  <line x1="470" y1="319" x2="470" y2="340" stroke="#484f58" stroke-width="1.5"/>
  <line x1="600" y1="319" x2="600" y2="340" stroke="#484f58" stroke-width="1.5"/>

  <rect x="130" y="340" width="130" height="36" rx="6" fill="#2ea04320" stroke="#2ea043" stroke-width="1"/>
  <text x="195" y="363" text-anchor="middle" fill="#2ea043" font-size="13">network</text>

  <rect x="270" y="340" width="130" height="36" rx="6" fill="#388bfd20" stroke="#388bfd" stroke-width="1"/>
  <text x="335" y="363" text-anchor="middle" fill="#388bfd" font-size="13">kali</text>

  <rect x="410" y="340" width="130" height="36" rx="6" fill="#d2960020" stroke="#d29600" stroke-width="1"/>
  <text x="475" y="363" text-anchor="middle" fill="#d29600" font-size="13">exploitgym</text>

  <rect x="550" y="340" width="130" height="36" rx="6" fill="#f8514920" stroke="#f85149" stroke-width="1"/>
  <text x="615" y="363" text-anchor="middle" fill="#f85149" font-size="13">kernel</text>

  <text x="400" y="403" text-anchor="middle" fill="#484f58" font-size="11">+ scout, ai-attack, heavy-scan, trailmark, active-directory (9 engines)</text>
</svg>